<?xml version="1.0" encoding="UTF-8" standalone="no"?>
<svg
   width="496.5152pt"
   height="205.51562pt"
   viewBox="0 0 496.5152 205.51562"
   version="1.2"
   id="svg60"
   sodipodi:docname="logo.svg"
   inkscape:version="1.3 (1:1.3+202307231459+0e150ed6c4)"
   xmlns:inkscape="http://www.inkscape.org/namespaces/inkscape"
   xmlns:sodipodi="http://sodipodi.sourceforge.net/DTD/sodipodi-0.dtd"
   xmlns="http://www.w3.org/2000/svg"
   xmlns:svg="http://www.w3.org/2000/svg">
  <sodipodi:namedview
     id="namedview60"
     pagecolor="#ffffff"
     bordercolor="#000000"
     borderopacity="0.25"
     inkscape:showpageshadow="2"
     inkscape:pageopacity="0.0"
     inkscape:pagecheckerboard="0"
     inkscape:deskcolor="#d1d1d1"
     inkscape:document-units="pt"
     inkscape:zoom="1"
     inkscape:cx="324"
     inkscape:cy="51"
     inkscape:window-width="1850"
     inkscape:window-height="1016"
     inkscape:window-x="1990"
     inkscape:window-y="27"
     inkscape:window-maximized="1"
     inkscape:current-layer="svg60" />
  <defs
     id="defs2">
    <clipPath
       id="clip1">
      <path
         d="M 204,0 H 425.24609 V 205.51562 H 204 Z m 0,0"
         id="path1" />
    </clipPath>
    <clipPath
       id="clip2">
      <path
         d="M 0,0 H 205 V 205.51562 H 0 Z m 0,0"
         id="path2" />
    </clipPath>
  </defs>
  <g
     clip-path="url(#clip1)"
     clip-rule="nonzero"
     id="g4"
     style="fill:none;stroke:none"
     transform="translate(-1.8863525)">
    <path
       style="fill:none;fill-opacity:1;fill-rule:nonzero;stroke:none"
       d="M 204.27344,205.3125 H 425.03906 V 0.207031 H 204.27344 Z m 0,0"
       id="path3" />
    <path
       style="fill:none;fill-opacity:1;fill-rule:nonzero;stroke:none"
       d="M 204.07031,205.51562 H 425.24609 V 0 H 204.07031 Z M 204.48047,0.410156 H 424.83203 V 205.10547 H 204.48047 Z m 0,0"
       id="path4" />
  </g>
  <path
     style="fill:#025c66;fill-opacity:1;fill-rule:nonzero;stroke:none"
     d="m 63.086303,116.86328 c -23.460937,0 -44.0625,-13.61719 -44.0625,-37.51953 V 17.917969 h 32.027344 v 58.703125 c 0,8.621094 6.925781,11.953125 12.335938,11.953125 5.414062,0 12.332031,-3.332031 12.332031,-11.800781 V 17.917969 H 107.14881 V 79.34375 c 0,23.90234 -20.601569,37.51953 -44.062507,37.51953"
     id="path6" />
  <path
     style="fill:#025c66;fill-opacity:1;fill-rule:nonzero;stroke:none"
     d="m 191.65662,50.351562 c -6,-3.957031 -11.71875,-6.277343 -22.54688,-6.277343 -15.9414,0 -24.0625,11.382812 -24.0625,22.617187 0,11.234375 8.57422,22.617188 25.71875,22.617188 9.17188,0 16.07422,-2.082032 20.97657,-5.871094 l -0.0859,27.61328 c -5.75,4.04297 -15.62891,6.11719 -26.45703,6.11719 -26.16797,0 -52.78516,-17.37891 -52.78516,-50.476564 0,-32.800781 26.61719,-50.476562 52.78516,-50.476562 10.82812,0 20.82422,2.382812 26.54297,5.679687 z m 0,0"
     id="path7" />
  <path
     style="fill:#025c66;fill-opacity:1;fill-rule:nonzero;stroke:none"
     d="m 26.363647,166.38672 c -4.441406,0 -7.472656,-2.60938 -7.472656,-6.96485 v -12.51562 h 2.011718 v 12.33594 c 0,3.33203 2.011719,5.34375 5.492188,5.34375 3.453125,0 5.492188,-2.01172 5.492188,-5.34375 v -12.33594 h 1.949218 v 12.51562 c 0,4.35547 -3.03125,6.96485 -7.472656,6.96485"
     id="path8" />
  <path
     style="fill:#025c66;fill-opacity:1;fill-rule:nonzero;stroke:none"
     d="m 54.695678,166.47656 -9.421875,-10.80469 c -1.621094,-1.85937 -3.363281,-3.93359 -4.683594,-5.52343 l -0.0625,0.0312 c 0.0625,1.76953 0.0625,3.57031 0.0625,5.3125 v 10.5625 h -2.011718 v -19.14839 h 1.410156 l 8.882812,10.17578 c 1.324219,1.5 3.09375,3.57031 4.355469,5.13281 l 0.05859,-0.0312 c -0.05859,-1.70703 -0.05859,-3.44922 -0.05859,-5.07031 V 146.9063 h 2.007813 v 19.57031 z m 0,0"
     id="path9" />
  <path
     style="fill:#025c66;fill-opacity:1;fill-rule:nonzero;stroke:none"
     d="m 60.488647,146.90625 h 2.011719 v 19.14844 h -2.011719 z m 0,0"
     id="path10" />
  <path
     style="fill:#025c66;fill-opacity:1;fill-rule:nonzero;stroke:none"
     d="m 74.383178,166.35547 h -0.570312 l -7.652344,-19.44531 h 2.132813 l 4.019531,10.26171 c 0.601562,1.5586 1.289062,3.42188 1.859375,5.13282 h 0.0625 c 0.539062,-1.67969 1.199218,-3.51172 1.828125,-5.13282 l 4.054687,-10.26171 h 1.917969 z m 0,0"
     id="path11" />
  <path
     style="fill:#025c66;fill-opacity:1;fill-rule:nonzero;stroke:none"
     d="m 85.187866,166.05469 v -19.14844 h 9.996093 v 1.74219 h -7.984374 v 6.90234 h 6.542968 v 1.74219 h -6.542968 v 7.02344 h 9.03125 v 1.73828 z m 0,0"
     id="path12" />
  <path
     style="fill:#025c66;fill-opacity:1;fill-rule:nonzero;stroke:none"
     d="m 104.69568,148.64844 h -3.1211 v 6.90234 h 3.2422 c 2.01171,0 3.78125,-1.25781 3.78125,-3.44922 0,-2.16406 -1.76954,-3.45312 -3.90235,-3.45312 m 6.57422,17.40625 -6.39453,-8.76172 h -3.30079 v 8.76172 h -2.007808 v -19.14844 h 5.460938 c 2.91016,0 5.61328,1.92187 5.61328,5.19531 0,2.49219 -1.62109,4.28906 -3.75,4.89063 l 6.72266,9.0625 z m 0,0"
     id="path13" />
  <path
     style="fill:#025c66;fill-opacity:1;fill-rule:nonzero;stroke:none"
     d="m 120.3324,166.38672 c -2.21875,0 -4.02344,-0.72266 -5.07031,-1.47266 l -0.57031,-2.37109 c 1.64843,1.26172 3.51171,2.07422 5.73046,2.07422 2.375,0 4.08204,-1.41407 4.08204,-3.51563 0,-1.98047 -1.19922,-3.20703 -3.8711,-4.14062 -3.42187,-1.19922 -5.04297,-3.0586 -5.04297,-5.55078 0,-2.3711 1.80078,-4.83204 5.67188,-4.83204 1.74219,0 3.27344,0.57032 4.05469,1.10938 l -0.42188,1.68359 c -0.75,-0.54297 -2.21875,-1.11328 -3.69141,-1.11328 -2.40234,0 -3.66015,1.5625 -3.66015,3.03125 0,1.53125 1.07812,2.70313 3.50781,3.63281 3.42188,1.28907 5.49609,2.91016 5.49609,6.00391 0,3.30078 -2.40234,5.46094 -6.21484,5.46094"
     id="path14" />
  <path
     style="fill:#025c66;fill-opacity:1;fill-rule:nonzero;stroke:none"
     d="m 130.9574,146.90625 h 2.01172 v 19.14844 h -2.01172 z m 0,0"
     id="path15" />
  <path
     style="fill:#025c66;fill-opacity:1;fill-rule:nonzero;stroke:none"
     d="m 142.93396,148.64844 h -2.70312 v 15.66797 h 2.70312 c 5.04297,0 8.85547,-2.73047 8.85547,-7.83594 0,-5.09766 -3.8125,-7.83203 -8.85547,-7.83203 m 0.29688,17.40625 h -5.01172 v -19.14844 h 5.01172 c 5.79687,0 10.625,3.48437 10.625,9.57422 0,6.09375 -4.82813,9.57422 -10.625,9.57422"
     id="path16" />
  <path
     style="fill:#025c66;fill-opacity:1;fill-rule:nonzero;stroke:none"
     d="m 165.80115,153.15234 c -0.35938,-0.875 -0.71875,-1.92187 -1.01953,-2.9414 h -0.0586 c -0.30078,1.01953 -0.6914,2.0664 -1.05078,2.9414 l -2.3125,5.87891 h 6.72266 z m 5.16406,12.90235 -2.1914,-5.3711 h -8.10157 l -2.16015,5.3711 h -1.98438 l 7.92188,-19.53516 h 0.63281 l 7.92578,19.53516 z m 0,0"
     id="path17" />
  <path
     style="fill:#025c66;fill-opacity:1;fill-rule:nonzero;stroke:none"
     d="m 181.16834,148.64844 h -2.69922 v 15.66797 h 2.69922 c 5.04297,0 8.85547,-2.73047 8.85547,-7.83594 0,-5.09766 -3.8125,-7.83203 -8.85547,-7.83203 m 0.30078,17.40625 h -5.01172 v -19.14844 h 5.01172 c 5.79297,0 10.625,3.48437 10.625,9.57422 0,6.09375 -4.83203,9.57422 -10.625,9.57422"
     id="path18" />
  <path
     style="fill:#025c66;fill-opacity:1;fill-rule:nonzero;stroke:none"
     d="m 23.226928,174.81641 h -2.472656 v 14.34375 h 2.472656 c 4.617188,0 8.105469,-2.5 8.105469,-7.17188 0,-4.67187 -3.488281,-7.17187 -8.105469,-7.17187 m 0.277344,15.9375 h -4.589844 v -17.53125 h 4.589844 c 5.300781,0 9.722656,3.1875 9.722656,8.76562 0,5.57813 -4.421875,8.76563 -9.722656,8.76563"
     id="path19" />
  <path
     style="fill:#025c66;fill-opacity:1;fill-rule:nonzero;stroke:none"
     d="m 36.855835,190.75391 v -17.53125 h 9.148437 v 1.59375 h -7.308594 v 6.32031 h 5.988281 v 1.59375 h -5.988281 v 6.42969 h 8.269531 v 1.59375 z m 0,0"
     id="path20" />
  <path
     style="fill:#025c66;fill-opacity:1;fill-rule:nonzero;stroke:none"
     d="m 70.457397,175.72266 c -1.015625,-0.65625 -2.746094,-1.20704 -4.617188,-1.20704 -3.953124,0 -7.609374,2.83204 -7.609374,7.47266 0,4.61719 3.597656,7.44531 7.609374,7.44531 2.035157,0 3.710938,-0.41015 4.945313,-1.17968 l -0.4375,1.86718 c -1.101563,0.60547 -2.5,0.9336 -4.699219,0.9336 -4.699218,0 -9.285156,-3.42969 -9.285156,-9.06641 0,-5.6875 4.644531,-9.06641 9.285156,-9.06641 2.253906,0 3.984375,0.4961 5.164063,1.17969 z m 0,0"
     id="path21" />
  <path
     style="fill:#025c66;fill-opacity:1;fill-rule:nonzero;stroke:none"
     d="m 81.390991,178.94141 c -0.328125,-0.80079 -0.65625,-1.76172 -0.933594,-2.69532 h -0.05469 c -0.273437,0.9336 -0.632812,1.89453 -0.960937,2.69532 l -2.117187,5.38281 h 6.15625 z m 4.726562,11.8125 -2.003906,-4.91797 h -7.417969 l -1.980469,4.91797 h -1.8125 l 7.253907,-17.88672 h 0.578125 l 7.253906,17.88672 z m 0,0"
     id="path22" />
  <path
     style="fill:#025c66;fill-opacity:1;fill-rule:nonzero;stroke:none"
     d="m 105.89881,191.14062 -8.625007,-9.89453 c -1.484375,-1.70312 -3.078125,-3.59765 -4.285156,-5.05468 l -0.05859,0.0273 c 0.05859,1.625 0.05859,3.26953 0.05859,4.86328 v 9.67188 h -1.84375 v -17.53125 h 1.292969 l 8.132814,9.3164 c 1.21094,1.375 2.82813,3.26953 3.98438,4.69922 l 0.0547,-0.0312 c -0.0547,-1.5625 -0.0547,-3.16016 -0.0547,-4.64062 v -9.34375 h 1.83984 v 17.91796 z m 0,0"
     id="path23" />
  <path
     style="fill:#025c66;fill-opacity:1;fill-rule:nonzero;stroke:none"
     d="m 117.98865,174.81641 v 15.9375 h -1.83984 v -15.9375 h -6.01953 v -1.59375 h 13.90625 v 1.59375 z m 0,0"
     id="path24" />
  <path
     style="fill:#025c66;fill-opacity:1;fill-rule:nonzero;stroke:none"
     d="m 132.3324,178.94141 c -0.33203,-0.80079 -0.66016,-1.76172 -0.93359,-2.69532 h -0.0586 c -0.27344,0.9336 -0.6289,1.89453 -0.95703,2.69532 l -2.11719,5.38281 h 6.15625 z m 4.72656,11.8125 -2.00781,-4.91797 h -7.41797 l -1.97656,4.91797 h -1.81641 l 7.25391,-17.88672 h 0.57812 l 7.25391,17.88672 z m 0,0"
     id="path25" />
  <path
     style="fill:#025c66;fill-opacity:1;fill-rule:nonzero;stroke:none"
     d="m 146.92224,181.90625 h -2.99609 v 7.25391 h 3.10547 c 2.11719,0 4.01172,-1.32032 4.01172,-3.62891 0,-2.27734 -1.89453,-3.625 -4.1211,-3.625 m -0.79687,-7.08984 h -2.19922 v 5.49609 h 2.28125 c 1.64844,0 3.02344,-0.98828 3.02344,-2.74609 0,-1.78516 -1.375,-2.75 -3.10547,-2.75 m 1.26172,15.9375 h -5.30078 v -17.53125 h 4.3125 c 2.44531,0 4.69921,1.62109 4.69921,4.34375 0,1.40234 -0.74218,2.77343 -1.92578,3.26953 1.98047,0.41406 3.73828,2.39062 3.73828,4.69531 0,3.30078 -2.6914,5.22266 -5.52343,5.22266"
     id="path26" />
  <path
     style="fill:#025c66;fill-opacity:1;fill-rule:nonzero;stroke:none"
     d="m 161.2074,174.81641 h -2.85547 v 6.32031 h 2.96484 c 1.84375,0 3.46094,-1.15235 3.46094,-3.16016 0,-1.97656 -1.61719,-3.16015 -3.57031,-3.16015 m 6.01953,15.9375 -5.85547,-8.02344 h -3.01953 v 8.02344 h -1.84375 v -17.53125 h 5.00391 c 2.66406,0 5.13672,1.76171 5.13672,4.7539 0,2.28125 -1.48438,3.92969 -3.4336,4.48047 l 6.15235,8.29688 z m 0,0"
     id="path27" />
  <path
     style="fill:#025c66;fill-opacity:1;fill-rule:nonzero;stroke:none"
     d="m 172.00818,173.22266 h 1.83984 v 17.53125 h -1.83984 z m 0,0"
     id="path28" />
  <path
     style="fill:#025c66;fill-opacity:1;fill-rule:nonzero;stroke:none"
     d="m 185.96521,178.94141 c -0.33203,-0.80079 -0.66015,-1.76172 -0.9375,-2.69532 h -0.0547 c -0.27343,0.9336 -0.6289,1.89453 -0.96093,2.69532 l -2.11719,5.38281 h 6.15625 z m 4.72266,11.8125 -2.00391,-4.91797 h -7.41797 l -1.97656,4.91797 h -1.81641 l 7.25391,-17.88672 h 0.57813 l 7.2539,17.88672 z m 0,0"
     id="path29" />
  <path
     style="fill:#facc8c;fill-opacity:1;fill-rule:nonzero;stroke:none"
     d="m 433.29334,46.683594 c -1.81641,0.0039 -3.39453,0.210937 -4.77344,0.574218 l -0.89063,10.84375 c 0,0 -2.74609,1.816407 -6.45703,2.003907 0.92969,5.058593 5.48828,10.054687 11.84375,9.359375 6.71875,-0.742188 12.11328,-4.820313 12.11328,-10.761719 0,-5.945313 -1.08984,-12.042969 -11.83593,-12.019531"
     id="path30" />
  <path
     style="fill:#facc8c;fill-opacity:1;fill-rule:nonzero;stroke:none"
     d="m 400.08631,38.765625 c 0.15234,0.171875 -0.69532,13.144531 -1.36329,16 -0.5664,2.425781 23.8125,0.578125 23.8125,0.578125 l 1.34766,-16.421875"
     id="path31" />
  <path
     style="fill:#f8b85c;fill-opacity:1;fill-rule:nonzero;stroke:none"
     d="m 445.62927,46.683594 c 3.2461,4.644531 3.08204,8.699218 3.11329,11.417968 0.13281,11.914063 -8.20704,16.425782 -18.72266,15.011719 -1.16016,-0.15625 -1.63281,-0.304687 -2.6875,-0.878906 -0.14844,0.550781 -4.34766,13.78125 -26.25781,16.390625 -22.40235,2.671875 -41.4375,39.94531 -41.4375,39.94531 l 94.60156,7.35156 6.47656,-113.386714 z m 0,0"
     id="path32" />
  <path
     style="fill:#702e28;fill-opacity:1;fill-rule:nonzero;stroke:none"
     d="m 376.40271,59.980469 c 0.52344,-1.652344 19.06641,-36.058594 24.39063,-45.652344 l -6.8125,1.492187 c -7.30469,12.988282 -23.92578,43.273438 -24.49219,44.8125 l -0.0586,0.191407 c -0.46485,1.453125 -0.69922,2.179687 1.35156,8.695312 1.21875,3.859375 5.60547,16.429688 8.37109,24.371094 1.53516,-1.527344 3.37891,-3.222656 5.00391,-4.527344 -1.84766,-5.695312 -5.33985,-15.070312 -6.46485,-18.644531 -2.25,-7.136719 -2.03906,-8.390625 -1.35156,-10.542969 z m 0,0"
     id="path33" />
  <path
     style="fill:#702e28;fill-opacity:1;fill-rule:nonzero;stroke:none"
     d="m 365.30896,58.746094 c 0.53125,-1.675782 16.7461,-31.027344 21.90625,-40.21875 l -8.60937,2.902344 c -6.82032,12.335937 -19.76953,35.824218 -20.32032,37.355468 l -0.0586,0.191406 c -0.46484,1.453126 -0.69922,2.183594 1.35547,8.699219 1.45703,4.625 8.48828,23.804688 12.03906,34.003909 1.44922,-1.82813 2.67969,-3.660159 4.26172,-5.378909 -2.86719,-8.222656 -7.98047,-22.683593 -9.28125,-26.816406 -2.25,-7.136719 -2.04297,-8.386719 -1.35547,-10.539063 z m 0,0"
     id="path34" />
  <path
     style="fill:#d74c42;fill-opacity:1;fill-rule:nonzero;stroke:none"
     d="m 354.75427,72.597656 c -2.24609,-7.136718 -2.03906,-8.390625 -1.35156,-10.542968 l 0.0625,-0.199219 c 0.54297,-1.722657 14.53906,-28.167969 19.09766,-36.421875 l -21.35156,5.453125 v 96.304691 h 0.72265 c 0,0 5.42188,-11.34766 13.77344,-22.60938 -3.52734,-10.124999 -9.39063,-27.031249 -10.95313,-31.984374"
     id="path35" />
  <path
     style="fill:#d74c42;fill-opacity:1;fill-rule:nonzero;stroke:none"
     d="m 397.10584,36.703125 c 0.008,0.0078 0.0117,0.03906 0.0156,0.08594 5.65625,-0.597656 30.08594,0.113282 30.08594,0.113282 l -0.30859,3.789062 c 1,-0.121094 2.04687,-0.207031 3.1875,-0.207031 5.72656,-0.01563 9.27734,1.351563 11.48046,3.492187 L 461.473,11.800784 403.53941,21.308597 c -7.36717,13.261715 -22.80076,41.136715 -23.35545,42.664059 l -0.0625,0.1875 c -0.46094,1.453125 -0.69531,2.179688 1.35547,8.695313 1.05859,3.363281 3.00391,9.367187 4.76953,14.8125 3.89844,-2.707031 7.9961,-4.574219 12.17969,-5.070313 17.78125,-2.121094 23.48437,-10.796875 25.08203,-14.292968 -4.19141,-1.871094 -7.26562,-5.941407 -8.53516,-10.011719 -8.85937,0.386719 -20.02734,0.515625 -19.58984,-1.347657 0.8125,-3.488281 1.84375,-18.890624 1.73828,-20.15625"
     id="path36" />
  <path
     style="fill:#702e28;fill-opacity:1;fill-rule:nonzero;stroke:none"
     d="m 423.12927,90.3125 -0.50781,3.367188 c -0.0547,0.1875 -0.16797,0.355468 -0.33594,0.5 -0.16796,0.144531 -0.41015,0.238281 -0.72656,0.292968 l 0.0586,0.0039 c -0.51563,0.07422 -1.2461,0.125 -2.1875,0.144532 -0.94141,0.02344 -1.94922,0.01953 -3.02344,-0.01172 -1.07422,-0.02734 -2.17578,-0.06641 -3.3086,-0.121094 -1.13281,-0.05078 -2.16015,-0.117187 -3.09765,-0.191406 -0.33203,1.226563 -0.67578,2.519531 -1.01953,3.878906 -0.34375,1.363276 -0.67188,2.714846 -0.97657,4.062496 l 0.46875,0.0391 c 0.42188,0.0703 0.87891,0.12891 1.36719,0.16797 0.48438,0.0391 1.01563,0.1211 1.59375,0.2461 0.41797,0.11328 0.86328,0.21875 1.32422,0.3125 0.46484,0.0977 0.90625,0.20312 1.32422,0.3164 1.14844,0.32813 2.22266,0.75782 3.21484,1.28907 0.99219,0.53125 1.8711,1.1875 2.62891,1.97265 0.76172,0.78906 1.36719,1.72656 1.82812,2.82422 0.45704,1.09375 0.6875,2.36719 0.6875,3.8125 -0.0156,0.19531 -0.0234,0.38281 -0.0156,0.55859 0.004,0.17579 0,0.36329 -0.0156,0.55469 l -0.0859,1.05078 c -0.0156,0.19532 -0.0352,0.42969 -0.0586,0.69922 -0.0234,0.27344 -0.0625,0.52344 -0.11718,0.75391 l 0.004,-0.0547 c -0.27734,1.93359 -0.84765,3.64844 -1.71094,5.14453 -0.86718,1.4961 -1.95312,2.73047 -3.26562,3.69922 -1.3125,0.96875 -2.83203,1.67969 -4.55078,2.125 -1.71875,0.44531 -3.58985,0.58984 -5.61328,0.42578 -2.10157,-0.17187 -3.64844,-0.52344 -4.64063,-1.05469 -0.99609,-0.53125 -1.57812,-0.97656 -1.74219,-1.34375 -0.22656,-1.07421 -0.30468,-2.02343 -0.23828,-2.83984 0.0156,-0.19531 0.0391,-0.38672 0.0742,-0.58203 0.0391,-0.19141 0.15235,-0.53516 0.34766,-1.02734 0.73437,0.60937 1.61328,1.08984 2.64453,1.44921 1.02734,0.35547 2.10547,0.58204 3.23437,0.67188 1.24219,0.10156 2.40235,-0.0273 3.46485,-0.39063 1.07031,-0.36328 2.01562,-0.92578 2.83984,-1.67968 0.82422,-0.75391 1.4961,-1.67969 2.01563,-2.77344 0.51953,-1.09375 0.83593,-2.30078 0.9414,-3.62109 0.16797,-2.0625 -0.15234,-3.64454 -0.96093,-4.75 -0.8125,-1.10157 -2.01954,-1.9336 -3.61719,-2.4961 -1.02735,-0.39453 -2.09766,-0.69922 -3.21485,-0.90625 -1.11718,-0.21094 -2.10156,-0.38672 -2.95312,-0.53515 -0.65234,-0.12891 -1.3125,-0.23438 -1.96875,-0.3086 -0.66406,-0.0703 -1.20703,-0.125 -1.63281,-0.16015 0.1914,-0.92579 0.42187,-1.95313 0.6914,-3.08594 0.26953,-1.13281 0.53907,-2.27344 0.8086,-3.42969 0.26953,-1.152341 0.54687,-2.292966 0.83593,-3.425778 0.28516,-1.128907 0.57032,-2.195313 0.84375,-3.191407 0.16797,-0.613281 0.33594,-1.214843 0.5,-1.808593 0.16797,-0.59375 0.34766,-1.488281 0.46094,-1.910157"
     id="path37" />
  <path
     style="fill:#702e28;fill-opacity:1;fill-rule:nonzero;stroke:none"
     d="m 430.03162,110.3125 c -0.22656,2.73438 -0.27344,5.03516 -0.15235,6.91016 0.125,1.875 0.39063,3.38672 0.8086,4.54297 0.41406,1.15625 0.94531,2.0039 1.60156,2.54296 0.65625,0.54297 1.40234,0.84375 2.24219,0.91407 0.80078,0.0664 1.5664,-0.11719 2.30078,-0.54297 0.73437,-0.42578 1.41016,-1.20703 2.03125,-2.34375 0.625,-1.13281 1.16406,-2.69922 1.62109,-4.69531 0.45703,-1.9961 0.8125,-4.54688 1.07032,-7.66016 0.20312,-2.52734 0.23828,-4.64844 0.10156,-6.375 -0.13281,-1.72656 -0.39844,-3.13672 -0.79688,-4.22656 -0.39843,-1.089848 -0.91797,-1.882816 -1.55468,-2.37891 -0.63672,-0.5 -1.35547,-0.78125 -2.15235,-0.84375 -1.72656,-0.140625 -3.23828,0.871094 -4.53515,3.02734 -1.29688,2.16407 -2.16016,5.8711 -2.58594,11.12891 m -6.86328,-0.75 c 0.36328,-4.45703 1.20312,-8.03906 2.52734,-10.75 1.31641,-2.707031 2.91797,-4.664062 4.79297,-5.867188 0.94141,-0.640624 2.01562,-1.105468 3.22656,-1.386718 1.20703,-0.285156 2.46094,-0.371094 3.76953,-0.265625 2.52344,0.207031 4.53907,0.898437 6.05469,2.082031 1.51172,1.179688 2.65234,2.667969 3.41406,4.46875 0.76172,1.79688 1.23438,3.8125 1.41407,6.05078 0.17578,2.23828 0.16796,4.53516 -0.0234,6.89063 -0.54688,6.77343 -1.99219,11.77734 -4.33203,15.01953 -2.33594,3.23828 -5.69532,4.67968 -10.06641,4.32422 -1.9375,-0.15625 -3.64062,-0.66797 -5.11719,-1.52735 -1.47656,-0.86328 -2.67578,-2.125 -3.59765,-3.78515 -0.92578,-1.66407 -1.57032,-3.75782 -1.9336,-6.28907 -0.36718,-2.52734 -0.41015,-5.51562 -0.1289,-8.96484"
     id="path38" />
  <path
     style="fill:#702e28;fill-opacity:1;fill-rule:nonzero;stroke:none"
     d="m 330.73865,165.18359 v -16.28906 h 10.33203 v 1.26953 h -8.94141 v 6.03516 h 8.76954 v 1.26953 h -8.76954 v 7.71484 z m 0,0"
     id="path39" />
  <path
     style="fill:#702e28;fill-opacity:1;fill-rule:nonzero;stroke:none"
     d="m 349.05506,150.38281 -3.85938,9.52735 h 7.69531 z m 5.91015,14.80078 -1.60937,-4.0039 h -8.625 l -1.61328,4.0039 h -1.60938 l 6.66797,-16.28906 h 1.73437 l 6.66797,16.28906 z m 0,0"
     id="path40" />
  <path
     style="fill:#702e28;fill-opacity:1;fill-rule:nonzero;stroke:none"
     d="m 357.40662,157.05078 c 0,-5.00391 3.64062,-8.42578 8.25781,-8.42578 2.58594,0 4.56641,1.14844 5.93359,2.88281 l -1.17187,0.75391 c -1.02734,-1.41406 -2.80859,-2.36719 -4.76172,-2.36719 -3.8125,0 -6.79297,2.90625 -6.79297,7.15625 0,4.20313 2.98047,7.15625 6.79297,7.15625 1.95313,0 3.73438,-0.94922 4.76172,-2.36719 l 1.19531,0.73047 c -1.46484,1.78516 -3.37109,2.90625 -5.95703,2.90625 -4.61719,0 -8.25781,-3.41797 -8.25781,-8.42578"
     id="path41" />
  <path
     style="fill:#702e28;fill-opacity:1;fill-rule:nonzero;stroke:none"
     d="m 374.40271,158.93359 v -10.03906 h 1.41797 v 10.01172 c 0,3.30078 1.73438,5.30078 4.93359,5.30078 3.19922,0 4.9336,-2 4.9336,-5.30078 v -10.01172 h 1.41797 v 10.03906 c 0,4.02735 -2.14844,6.54688 -6.35157,6.54688 -4.17578,0 -6.35156,-2.54297 -6.35156,-6.54688"
     id="path42" />
  <path
     style="fill:#702e28;fill-opacity:1;fill-rule:nonzero;stroke:none"
     d="m 390.81287,165.18359 v -16.28906 h 1.41797 v 15.01953 h 7.89062 v 1.26953 z m 0,0"
     id="path43" />
  <path
     style="fill:#702e28;fill-opacity:1;fill-rule:nonzero;stroke:none"
     d="m 404.68396,165.18359 v -15.01953 h -5.32422 v -1.26953 h 12.06641 v 1.26953 h -5.32422 v 15.01953 z m 0,0"
     id="path44" />
  <path
     style="fill:#702e28;fill-opacity:1;fill-rule:nonzero;stroke:none"
     d="m 418.50427,150.38281 -3.85546,9.52735 h 7.6914 z m 5.91407,14.80078 -1.61328,-4.0039 h -8.6211 l -1.61328,4.0039 h -1.61328 l 6.66797,-16.28906 h 1.73437 l 6.66797,16.28906 z m 0,0"
     id="path45" />
  <path
     style="fill:#702e28;fill-opacity:1;fill-rule:nonzero;stroke:none"
     d="m 440.38709,157.05078 c 0,-3.80859 -2.44141,-6.88672 -6.76563,-6.88672 h -3.80859 v 13.75 h 3.80859 c 4.30078,0 6.76563,-3.05469 6.76563,-6.86328 m -11.96485,8.13281 v -16.28906 h 5.19922 c 5.0586,0 8.23047,3.6875 8.23047,8.15625 0,4.51953 -3.17187,8.13281 -8.23047,8.13281 z m 0,0"
     id="path46" />
  <path
     style="fill:#702e28;fill-opacity:1;fill-rule:nonzero;stroke:none"
     d="m 463.60974,157.05078 c 0,-3.80859 -2.4414,-6.88672 -6.76172,-6.88672 h -3.8125 v 13.75 h 3.8125 c 4.29688,0 6.76172,-3.05469 6.76172,-6.86328 m -11.96484,8.13281 v -16.28906 h 5.20312 c 5.05469,0 8.23047,3.6875 8.23047,8.15625 0,4.51953 -3.17578,8.13281 -8.23047,8.13281 z m 0,0"
     id="path47" />
  <path
     style="fill:#702e28;fill-opacity:1;fill-rule:nonzero;stroke:none"
     d="m 468.54334,165.18359 v -16.28906 h 10.33203 v 1.26953 h -8.94141 v 6.03516 h 8.76953 v 1.26953 h -8.76953 v 6.44531 h 8.94141 v 1.26953 z m 0,0"
     id="path48" />
  <path
     style="fill:#d74c42;fill-opacity:1;fill-rule:nonzero;stroke:none"
     d="m 330.76209,181.38672 c 0,-6.84375 5.15234,-11.46485 11.82812,-11.46485 4.85156,0 7.67578,2.625 9.23828,5.41797 l -4.05468,1.99219 c -0.92969,-1.79297 -2.92188,-3.22266 -5.1836,-3.22266 -4.05078,0 -6.97656,3.09375 -6.97656,7.27735 0,4.1875 2.92578,7.27734 6.97656,7.27734 2.26172,0 4.25391,-1.42969 5.1836,-3.22265 l 4.05468,1.96093 c -1.5625,2.75782 -4.38672,5.44922 -9.23828,5.44922 -6.67578,0 -11.82812,-4.65234 -11.82812,-11.46484"
     id="path49" />
  <path
     style="fill:#d74c42;fill-opacity:1;fill-rule:nonzero;stroke:none"
     d="m 354.65662,170.28906 h 4.71875 v 22.16406 h -4.71875 z m 0,0"
     id="path50" />
  <path
     style="fill:#d74c42;fill-opacity:1;fill-rule:nonzero;stroke:none"
     d="m 363.75818,192.45312 v -22.16406 h 15.68359 v 4.15235 h -10.96484 v 4.65234 h 10.73438 v 4.15234 h -10.73438 v 5.05469 h 10.96484 v 4.15234 z m 0,0"
     id="path51" />
  <path
     style="fill:#d74c42;fill-opacity:1;fill-rule:nonzero;stroke:none"
     d="m 398.41834,192.45312 -10.56641,-14.45703 v 14.45703 h -4.71875 v -22.16406 h 4.85156 l 10.26953,13.92188 v -13.92188 h 4.71875 v 22.16406 z m 0,0"
     id="path52" />
  <path
     style="fill:#d74c42;fill-opacity:1;fill-rule:nonzero;stroke:none"
     d="m 406.29334,181.38672 c 0,-6.84375 5.15234,-11.46485 11.83203,-11.46485 4.85156,0 7.67578,2.625 9.23828,5.41797 l -4.05469,1.99219 c -0.92969,-1.79297 -2.92187,-3.22266 -5.18359,-3.22266 -4.05469,0 -6.98047,3.09375 -6.98047,7.27735 0,4.1875 2.92578,7.27734 6.98047,7.27734 2.26172,0 4.2539,-1.42969 5.18359,-3.22265 l 4.05469,1.96093 c -1.5625,2.75782 -4.38672,5.44922 -9.23828,5.44922 -6.67969,0 -11.83203,-4.65234 -11.83203,-11.46484"
     id="path53" />
  <path
     style="fill:#d74c42;fill-opacity:1;fill-rule:nonzero;stroke:none"
     d="m 430.18787,170.28906 h 4.71875 v 22.16406 h -4.71875 z m 0,0"
     id="path54" />
  <path
     style="fill:#d74c42;fill-opacity:1;fill-rule:nonzero;stroke:none"
     d="m 448.46521,175.00781 -3.45703,9.53516 h 6.91016 z m 6.14844,17.44531 -1.39844,-3.7539 h -9.5039 l -1.39454,3.7539 h -5.35156 l 8.54297,-22.16406 h 5.91406 l 8.53907,22.16406 z m 0,0"
     id="path55" />
  <path
     style="fill:#d74c42;fill-opacity:1;fill-rule:nonzero;stroke:none"
     d="m 460.49256,189.32812 2.59375,-3.6875 c 1.5625,1.62891 3.98828,3.02344 7.04296,3.02344 2.625,0 3.85547,-1.16406 3.85547,-2.45703 0,-3.85547 -12.75781,-1.16406 -12.75781,-9.50391 0,-3.6914 3.1875,-6.74609 8.40625,-6.74609 3.52344,0 6.44531,1.0625 8.63672,3.08984 l -2.625,3.52344 c -1.79297,-1.66406 -4.18359,-2.42578 -6.44531,-2.42578 -1.99219,0 -3.1211,0.86328 -3.1211,2.19141 0,3.48828 12.72657,1.1289 12.72657,9.40625 0,4.05078 -2.92579,7.10937 -8.875,7.10937 -4.28516,0 -7.34375,-1.42969 -9.4375,-3.52344"
     id="path56" />
  <path
     style="fill:#702e28;fill-opacity:1;fill-rule:nonzero;stroke:none"
     d="m 380.47693,69.480469 -0.42969,-1.746094 65.46485,-18.082031 0.48047,1.734375 z m 0,0"
     id="path57" />
  <path
     style="fill:#702e28;fill-opacity:1;fill-rule:nonzero;stroke:none"
     d="m 446.93787,62.234375 -52.5625,-24.386719 0.52344,-0.949218 52.49218,24.355468 z m 0,0"
     id="path58" />
  <path
     style="fill:#702e28;fill-opacity:1;fill-rule:nonzero;stroke:none"
     d="M 444.53552,68.019531 400.5199,26.78125 l 0.83984,-1.546875 44.40625,41.476563 z m 0,0"
     id="path59" />
  <path
     style="fill:#702e28;fill-opacity:1;fill-rule:nonzero;stroke:none"
     d="m 384.72302,82.964844 -0.5664,-1.746094 47.57031,-27.355469 0.89453,1.558594 z m 0,0"
     id="path60" />
  <rect
     style="fill:none;fill-opacity:1;stroke:none;stroke-width:1.8;stroke-dasharray:5.4, 1.8;stroke-opacity:1"
     id="rect61"
     width="496.5152"
     height="201.57381"
     x="-2.220446e-16"
     y="2.2429504" />
</svg>
